<mxfile host="app.diagrams.net" modified="2023-11-05T12:49:46.422Z" agent="Mozilla/5.0 (Windows NT 10.0; Win64; x64) AppleWebKit/537.36 (KHTML, like Gecko) Chrome/119.0.0.0 Safari/537.36" version="22.0.8" etag="8GMVX-vxb2c8Oz-UkTAI" type="github">
  <diagram name="Side-1" id="QMPEkPwPwUcZDNCPnJL6">
    <mxGraphModel>
      <root>
        <mxCell id="0" />
        <mxCell id="1" parent="0" />
      </root>
    </mxGraphModel>
  </diagram>
</mxfile>
